<svg width="282" height="304" viewBox="0 0 282 304" fill="none" xmlns="http://www.w3.org/2000/svg">
<g clip-path="url(#clip0_578_187)">
<path d="M178.881 172.48L56.9826 203.929C52.8476 204.991 48.4611 204.366 44.7855 202.191C41.1098 200.017 38.445 196.471 37.3759 192.33L0.510612 48.9018C-0.549202 44.7591 0.0744393 40.3644 2.24472 36.6818C4.41501 32.9992 7.9547 30.3295 12.0872 29.2583L125.494 0L154.52 13.0187L190.458 152.836C191.517 156.979 190.894 161.373 188.723 165.056C186.553 168.739 183.013 171.408 178.881 172.48Z" fill="#F2F2F2"/>
<path d="M13.2431 33.7554C10.3002 34.5182 7.7795 36.4193 6.23399 39.0418C4.68848 41.6642 4.24438 44.7938 4.9991 47.7439L41.8644 191.172C42.6257 194.121 44.5233 196.646 47.1409 198.195C49.7584 199.743 52.8821 200.188 55.8267 199.432L177.725 167.983C180.668 167.22 183.189 165.319 184.734 162.696C186.28 160.074 186.724 156.944 185.969 153.994L150.589 16.3433L125.08 4.9021L13.2431 33.7554Z" fill="white"/>
<path d="M154.211 13.7586L135.345 18.6258C133.968 18.9811 132.506 18.7738 131.282 18.0493C130.057 17.3249 129.17 16.1428 128.815 14.7629L125.227 0.803044C125.211 0.741928 125.213 0.677612 125.232 0.617475C125.251 0.557338 125.287 0.503813 125.335 0.463038C125.383 0.422263 125.442 0.395887 125.504 0.386938C125.567 0.377989 125.63 0.386826 125.688 0.412439L154.263 13.1266C154.327 13.1549 154.38 13.2023 154.415 13.2623C154.451 13.3223 154.467 13.3918 154.461 13.4613C154.455 13.5308 154.428 13.5967 154.383 13.65C154.338 13.7033 154.278 13.7412 154.211 13.7586Z" fill="#F2F2F2"/>
<path d="M144.286 136.244L88.787 150.562C88.446 150.65 88.0911 150.67 87.7425 150.62C87.3939 150.571 87.0584 150.453 86.7552 150.274C86.452 150.094 86.1871 149.857 85.9755 149.575C85.7639 149.293 85.6098 148.972 85.522 148.63C85.4342 148.289 85.4144 147.933 85.4637 147.584C85.5131 147.235 85.6306 146.899 85.8097 146.595C85.9887 146.291 86.2257 146.026 86.5071 145.814C86.7885 145.602 87.1088 145.447 87.4498 145.359L142.948 131.041C143.289 130.953 143.644 130.933 143.993 130.983C144.341 131.032 144.677 131.15 144.98 131.329C145.283 131.509 145.548 131.746 145.76 132.028C145.972 132.31 146.126 132.631 146.213 132.972C146.301 133.314 146.321 133.67 146.272 134.019C146.222 134.368 146.105 134.704 145.926 135.008C145.747 135.312 145.51 135.577 145.228 135.789C144.947 136.001 144.627 136.156 144.286 136.244Z" fill="#CCCCCC"/>
<path d="M157.252 142.26L91.0436 159.341C90.355 159.519 89.6241 159.415 89.0118 159.053C88.3995 158.691 87.9559 158.1 87.7786 157.41C87.6012 156.72 87.7047 155.988 88.0663 155.374C88.4278 154.761 89.0178 154.316 89.7064 154.139L155.915 137.057C156.604 136.88 157.334 136.984 157.946 137.346C158.558 137.709 159.001 138.299 159.178 138.989C159.355 139.678 159.252 140.41 158.891 141.024C158.53 141.637 157.941 142.081 157.252 142.26Z" fill="#CCCCCC"/>
<path d="M66.1357 167.807C71.3694 167.807 75.6121 163.556 75.6121 158.313C75.6121 153.069 71.3694 148.819 66.1357 148.819C60.9021 148.819 56.6594 153.069 56.6594 158.313C56.6594 163.556 60.9021 167.807 66.1357 167.807Z" fill="#E6E6E6"/>
<path d="M138.384 111.397L64.6767 130.406C62.5466 130.953 60.2869 130.631 58.3934 129.51C56.5 128.39 55.1274 126.563 54.5768 124.43L39.1305 64.3119C38.5847 62.1777 38.9061 59.9138 40.0243 58.0168C41.1425 56.1198 42.9661 54.7447 45.0951 54.1931L118.803 35.1839C120.933 34.6371 123.193 34.9592 125.086 36.0795C126.979 37.1998 128.352 39.0268 128.903 41.1597L144.349 101.278C144.895 103.412 144.573 105.676 143.455 107.573C142.337 109.47 140.513 110.845 138.384 111.397Z" fill="white"/>
<path d="M138.384 111.397L64.6767 130.406C62.5466 130.953 60.2869 130.631 58.3934 129.51C56.5 128.39 55.1274 126.563 54.5768 124.43L39.1305 64.3119C38.5847 62.1777 38.9061 59.9138 40.0243 58.0168C41.1425 56.1198 42.9661 54.7447 45.0951 54.1931L118.803 35.1839C120.933 34.6371 123.193 34.9592 125.086 36.0795C126.979 37.1998 128.352 39.0268 128.903 41.1597L144.349 101.278C144.895 103.412 144.573 105.676 143.455 107.573C142.337 109.47 140.513 110.845 138.384 111.397ZM45.3383 55.1398C43.4599 55.6265 41.8508 56.8399 40.8642 58.5137C39.8775 60.1876 39.5939 62.1851 40.0754 64.0682L55.5218 124.187C56.0076 126.069 57.2187 127.681 58.8894 128.669C60.5601 129.658 62.5539 129.942 64.4335 129.459L138.141 110.45C140.02 109.963 141.629 108.75 142.615 107.076C143.602 105.402 143.886 103.405 143.404 101.522L127.958 41.4034C127.472 39.5215 126.261 37.9094 124.59 36.9209C122.919 35.9324 120.926 35.6482 119.046 36.1307L45.3383 55.1398Z" fill="#E6E6E6"/>
<path d="M115.064 55.398L77.8643 64.9917C77.5391 65.0827 77.1916 65.0465 76.8919 64.8906C76.5923 64.7347 76.3629 64.4706 76.2502 64.1517C76.1977 63.9851 76.1797 63.8095 76.1971 63.6358C76.2146 63.462 76.2673 63.2936 76.3519 63.1408C76.4365 62.9881 76.5512 62.8542 76.6892 62.7474C76.8271 62.6405 76.9853 62.563 77.1542 62.5194L115.021 52.7537C116.55 53.5302 116.148 55.1183 115.064 55.398Z" fill="#F2F2F2"/>
<path d="M116.743 61.9351L79.5438 71.5288C79.2185 71.6198 78.871 71.5836 78.5713 71.4277C78.2717 71.2718 78.0423 71.0077 77.9296 70.6888C77.8771 70.5222 77.8591 70.3467 77.8766 70.1729C77.8941 69.9991 77.9467 69.8307 78.0313 69.6779C78.1159 69.5252 78.2306 69.3913 78.3686 69.2845C78.5065 69.1776 78.6647 69.1001 78.8336 69.0565L116.7 59.2908C118.23 60.0673 117.828 61.6554 116.743 61.9351Z" fill="#F2F2F2"/>
<path d="M72.4586 77.3248L61.1057 80.2527C60.7349 80.3479 60.3416 80.2919 60.012 80.0969C59.6824 79.9019 59.4435 79.5838 59.3477 79.2126L55.899 65.7901C55.804 65.4186 55.8599 65.0245 56.0546 64.6943C56.2492 64.3641 56.5666 64.1248 56.9372 64.0288L68.2901 61.1009C68.6609 61.0058 69.0541 61.0619 69.3837 61.2569C69.7132 61.4519 69.9522 61.7699 70.0481 62.1411L73.4968 75.5635C73.5918 75.935 73.5359 76.3291 73.3412 76.6593C73.1466 76.9895 72.8291 77.2288 72.4586 77.3248Z" fill="#E6E6E6"/>
<path d="M120.074 75.3481L63.3011 89.9898C62.9759 90.0808 62.6283 90.0446 62.3287 89.8887C62.029 89.7328 61.7997 89.4687 61.6869 89.1498C61.6345 88.9832 61.6164 88.8077 61.6339 88.6339C61.6514 88.4601 61.704 88.2917 61.7886 88.1389C61.8732 87.9862 61.988 87.8523 62.1259 87.7455C62.2639 87.6387 62.4221 87.5611 62.5909 87.5175L120.032 72.7036C121.561 73.4801 121.159 75.0684 120.074 75.3481Z" fill="#F2F2F2"/>
<path d="M121.754 81.8874L64.9813 96.5291C64.6561 96.6201 64.3085 96.5839 64.0089 96.428C63.7092 96.2721 63.4799 96.008 63.3671 95.6891C63.3146 95.5225 63.2966 95.347 63.3141 95.1732C63.3316 94.9994 63.3842 94.831 63.4688 94.6782C63.5534 94.5255 63.6682 94.3916 63.8061 94.2848C63.944 94.1779 64.1023 94.1004 64.2711 94.0568L121.712 79.2429C123.241 80.0194 122.839 81.6076 121.754 81.8874Z" fill="#F2F2F2"/>
<path d="M123.433 88.4223L66.6602 103.064C66.335 103.155 65.9875 103.119 65.6878 102.963C65.3882 102.807 65.1588 102.543 65.0461 102.224C64.9936 102.057 64.9756 101.882 64.993 101.708C65.0105 101.534 65.0632 101.366 65.1478 101.213C65.2323 101.06 65.3471 100.927 65.4851 100.82C65.623 100.713 65.7812 100.635 65.9501 100.592L123.391 85.7778C124.92 86.5543 124.518 88.1426 123.433 88.4223Z" fill="#F2F2F2"/>
<path d="M125.113 94.9609L68.3402 109.603C68.015 109.694 67.6674 109.657 67.3678 109.501C67.0681 109.346 66.8387 109.081 66.726 108.763C66.6735 108.596 66.6555 108.42 66.673 108.247C66.6905 108.073 66.7431 107.904 66.8277 107.752C66.9123 107.599 67.027 107.465 67.165 107.358C67.3029 107.251 67.4611 107.174 67.63 107.13L125.071 92.3164C126.6 93.0929 126.198 94.6811 125.113 94.9609Z" fill="#F2F2F2"/>
<path d="M126.792 101.496L70.0194 116.138C69.6941 116.229 69.3466 116.193 69.0469 116.037C68.7473 115.881 68.5179 115.617 68.4052 115.298C68.3527 115.131 68.3347 114.956 68.3522 114.782C68.3697 114.608 68.4223 114.44 68.5069 114.287C68.5915 114.134 68.7062 114 68.8442 113.894C68.9821 113.787 69.1403 113.709 69.3092 113.666L126.75 98.8518C128.28 99.6283 127.877 101.217 126.792 101.496Z" fill="#F2F2F2"/>
<path d="M66.8349 161.641C66.6285 161.695 66.4103 161.68 66.2133 161.598L66.2011 161.593L63.6195 160.497C63.4997 160.446 63.3911 160.372 63.2998 160.279C63.2086 160.186 63.1365 160.076 63.0878 159.955C63.039 159.834 63.0145 159.705 63.0157 159.575C63.0168 159.444 63.0436 159.315 63.0945 159.195C63.1454 159.075 63.2195 158.967 63.3123 158.875C63.4052 158.784 63.5152 158.712 63.6359 158.664C63.7566 158.615 63.8856 158.591 64.0157 158.592C64.1458 158.593 64.2744 158.62 64.394 158.672L66.0668 159.384L68.2589 154.218C68.3097 154.098 68.3836 153.99 68.4763 153.899C68.569 153.807 68.6788 153.735 68.7992 153.687C68.9197 153.638 69.0486 153.614 69.1785 153.615C69.3084 153.616 69.4368 153.643 69.5564 153.694L69.5435 153.728L69.5572 153.694C69.7985 153.797 69.9891 153.992 70.0872 154.236C70.1853 154.479 70.1829 154.752 70.0804 154.994L67.5015 161.068C67.4417 161.209 67.3505 161.333 67.235 161.432C67.1195 161.531 66.9828 161.602 66.8354 161.64L66.8349 161.641Z" fill="white"/>
<path d="M225.636 227.136H99.7609C95.4924 227.132 91.4 225.431 88.3816 222.407C85.3633 219.383 83.6655 215.282 83.6606 211.006V62.8981C83.6655 58.6215 85.3633 54.5215 88.3816 51.4974C91.4 48.4734 95.4924 46.7724 99.7609 46.7676H216.867L241.736 66.6272V211.006C241.732 215.282 240.034 219.383 237.015 222.407C233.997 225.431 229.905 227.132 225.636 227.136Z" fill="#E6E6E6"/>
<path d="M99.761 51.4111C96.7213 51.4146 93.807 52.6259 91.6576 54.7794C89.5081 56.9328 88.2991 59.8526 88.2957 62.898V211.006C88.2991 214.051 89.5081 216.971 91.6576 219.124C93.807 221.278 96.7213 222.489 99.761 222.493H225.636C228.676 222.489 231.59 221.278 233.74 219.124C235.889 216.971 237.098 214.051 237.102 211.006V68.8642L215.246 51.4111H99.761Z" fill="white"/>
<path d="M201.153 94.4771H143.844C143.133 94.4771 142.451 94.1941 141.948 93.6903C141.446 93.1866 141.163 92.5033 141.163 91.7909C141.163 91.0785 141.446 90.3952 141.948 89.8915C142.451 89.3877 143.133 89.1047 143.844 89.1047H201.153C201.864 89.1047 202.546 89.3877 203.049 89.8915C203.552 90.3952 203.835 91.0785 203.835 91.7909C203.835 92.5033 203.552 93.1866 203.049 93.6903C202.546 94.1941 201.864 94.4771 201.153 94.4771Z" fill="#3F3D56"/>
<path d="M212.213 103.543H143.844C143.134 103.542 142.453 103.258 141.951 102.755C141.449 102.251 141.167 101.568 141.167 100.857C141.167 100.145 141.449 99.4621 141.951 98.9584C142.453 98.4548 143.134 98.1714 143.844 98.1704H212.213C212.566 98.1699 212.915 98.2391 213.24 98.3738C213.566 98.5086 213.862 98.7064 214.111 98.9559C214.361 99.2054 214.558 99.5016 214.693 99.8278C214.828 100.154 214.898 100.504 214.898 100.857C214.898 101.21 214.828 101.559 214.693 101.885C214.558 102.211 214.361 102.508 214.111 102.757C213.862 103.007 213.566 103.205 213.24 103.339C212.915 103.474 212.566 103.543 212.213 103.543Z" fill="#3F3D56"/>
<path d="M201.154 129.731H143.846C143.135 129.731 142.454 130.014 141.951 130.518C141.448 131.022 141.166 131.705 141.166 132.417C141.166 133.13 141.448 133.813 141.951 134.317C142.454 134.82 143.135 135.103 143.846 135.103H201.154C201.865 135.103 202.547 134.82 203.05 134.317C203.552 133.813 203.835 133.13 203.835 132.417C203.835 131.705 203.552 131.022 203.05 130.518C202.547 130.014 201.865 129.731 201.154 129.731Z" fill="#CCCCCC"/>
<path d="M212.214 138.799H143.846C143.135 138.799 142.454 139.082 141.951 139.586C141.448 140.089 141.166 140.772 141.166 141.485C141.166 142.197 141.448 142.88 141.951 143.384C142.454 143.888 143.135 144.171 143.846 144.171H212.214C212.925 144.171 213.607 143.888 214.11 143.384C214.613 142.88 214.895 142.197 214.895 141.485C214.895 140.772 214.613 140.089 214.11 139.586C213.607 139.082 212.925 138.799 212.214 138.799Z" fill="#CCCCCC"/>
<path d="M201.153 175.734H143.844C143.133 175.734 142.451 175.451 141.948 174.947C141.446 174.443 141.163 173.76 141.163 173.048C141.163 172.335 141.446 171.652 141.948 171.148C142.451 170.644 143.133 170.361 143.844 170.361H201.153C201.864 170.361 202.546 170.644 203.049 171.148C203.552 171.652 203.835 172.335 203.835 173.048C203.835 173.76 203.552 174.443 203.049 174.947C202.546 175.451 201.864 175.734 201.153 175.734Z" fill="#CCCCCC"/>
<path d="M212.213 184.8H143.844C143.134 184.799 142.453 184.515 141.951 184.012C141.449 183.508 141.167 182.825 141.167 182.113C141.167 181.402 141.449 180.719 141.951 180.215C142.453 179.712 143.134 179.428 143.844 179.427H212.213C212.566 179.427 212.915 179.496 213.24 179.631C213.566 179.765 213.862 179.963 214.111 180.213C214.361 180.462 214.558 180.758 214.693 181.085C214.828 181.411 214.898 181.76 214.898 182.113C214.898 182.466 214.828 182.816 214.693 183.142C214.558 183.468 214.361 183.765 214.111 184.014C213.862 184.264 213.566 184.461 213.24 184.596C212.915 184.731 212.566 184.8 212.213 184.8Z" fill="#CCCCCC"/>
<path d="M119.979 105.818C125.213 105.818 129.456 101.567 129.456 96.3237C129.456 91.0802 125.213 86.8296 119.979 86.8296C114.746 86.8296 110.503 91.0802 110.503 96.3237C110.503 101.567 114.746 105.818 119.979 105.818Z" fill="#3F3D56"/>
<path d="M119.04 99.9456C118.827 99.9459 118.619 99.8768 118.449 99.7487L118.438 99.7408L116.211 98.0339C116.108 97.9548 116.021 97.8561 115.956 97.7433C115.89 97.6305 115.848 97.5059 115.831 97.3766C115.814 97.2474 115.822 97.116 115.855 96.99C115.889 96.864 115.947 96.7459 116.026 96.6424C116.105 96.539 116.204 96.4522 116.317 96.387C116.43 96.3218 116.554 96.2795 116.683 96.2626C116.812 96.2456 116.943 96.2544 117.069 96.2883C117.195 96.3222 117.312 96.3806 117.416 96.4601L118.858 97.5684L122.267 93.113C122.346 93.0097 122.444 92.923 122.557 92.8578C122.669 92.7927 122.794 92.7504 122.922 92.7334C123.051 92.7163 123.182 92.7249 123.308 92.7585C123.433 92.7921 123.551 92.8502 123.654 92.9294L123.633 92.9591L123.655 92.9296C123.863 93.0898 123.999 93.3261 124.033 93.5866C124.067 93.8472 123.997 94.1108 123.838 94.3195L119.828 99.5577C119.735 99.6784 119.616 99.7761 119.48 99.8431C119.343 99.9102 119.193 99.9449 119.041 99.9444L119.04 99.9456Z" fill="white"/>
<path d="M130.43 136.951C130.43 138.198 130.185 139.433 129.709 140.585C129.233 141.737 128.536 142.784 127.656 143.666C126.776 144.548 125.731 145.248 124.582 145.725C123.432 146.202 122.199 146.448 120.955 146.448C120.873 146.45 120.792 146.447 120.711 146.439C118.848 146.391 117.04 145.793 115.514 144.721C113.988 143.649 112.811 142.15 112.131 140.411C111.451 138.672 111.298 136.771 111.691 134.946C112.084 133.121 113.006 131.452 114.341 130.149C115.676 128.846 117.365 127.966 119.196 127.619C121.028 127.273 122.921 127.475 124.638 128.202C126.355 128.928 127.821 130.145 128.851 131.701C129.881 133.257 130.43 135.083 130.43 136.951Z" fill="#CCCCCC"/>
<path d="M119.979 187.074C125.213 187.074 129.456 182.824 129.456 177.58C129.456 172.337 125.213 168.086 119.979 168.086C114.746 168.086 110.503 172.337 110.503 177.58C110.503 182.824 114.746 187.074 119.979 187.074Z" fill="#CCCCCC"/>
<path d="M241.252 67.2663H221.771C220.349 67.2663 218.985 66.7003 217.98 65.6927C216.974 64.6852 216.409 63.3188 216.409 61.8939V47.4786C216.409 47.4155 216.427 47.3536 216.46 47.3002C216.494 47.2467 216.542 47.2038 216.598 47.1763C216.655 47.1488 216.718 47.1379 216.781 47.1448C216.844 47.1518 216.903 47.1762 216.952 47.2154L241.46 66.6673C241.515 66.7106 241.555 66.7698 241.574 66.8367C241.594 66.9037 241.592 66.975 241.569 67.0409C241.546 67.1067 241.503 67.1638 241.447 67.2042C241.39 67.2446 241.322 67.2663 241.252 67.2663Z" fill="#CCCCCC"/>
<path d="M130.429 136.951C130.43 138.198 130.185 139.433 129.709 140.585C129.233 141.737 128.536 142.784 127.656 143.666C126.776 144.548 125.731 145.248 124.581 145.725C123.432 146.202 122.199 146.448 120.955 146.448C120.873 146.45 120.792 146.447 120.711 146.439C119.487 143.379 119.015 140.07 119.335 136.79C119.655 133.509 120.758 130.354 122.55 127.59C124.754 127.969 126.754 129.116 128.196 130.829C129.638 132.542 130.429 134.71 130.429 136.951Z" fill="#3F3D56"/>
<path d="M141.163 132.42C141.164 131.707 141.447 131.024 141.95 130.52C142.453 130.016 143.135 129.733 143.846 129.731H158.127C158.961 131.431 159.554 133.239 159.888 135.103H143.846C143.136 135.103 142.454 134.821 141.951 134.318C141.448 133.814 141.165 133.132 141.163 132.42Z" fill="#3F3D56"/>
<path d="M160.22 138.799C160.221 140.613 159.981 142.42 159.508 144.171H143.846C143.135 144.171 142.454 143.888 141.951 143.384C141.448 142.88 141.166 142.197 141.166 141.485C141.166 140.772 141.448 140.089 141.951 139.586C142.454 139.082 143.135 138.799 143.846 138.799H160.22Z" fill="#3F3D56"/>
<path d="M195.554 171.929C195.149 172.593 194.498 173.069 193.744 173.252C192.989 173.435 192.193 173.31 191.53 172.905L157.376 152.033C157.047 151.833 156.762 151.569 156.535 151.258C156.309 150.947 156.145 150.594 156.055 150.22C155.964 149.846 155.948 149.457 156.008 149.077C156.067 148.696 156.201 148.331 156.401 148.002C156.601 147.673 156.864 147.387 157.174 147.16C157.485 146.933 157.837 146.77 158.211 146.679C158.584 146.588 158.972 146.572 159.352 146.632C159.732 146.691 160.096 146.825 160.424 147.026L194.579 167.898C195.242 168.303 195.717 168.955 195.9 169.711C196.082 170.467 195.958 171.265 195.554 171.929Z" fill="#3F3D56"/>
<path d="M161.399 151.056C158.987 155.018 155.457 158.174 151.255 160.126C147.052 162.077 142.367 162.736 137.791 162.02C133.214 161.303 128.953 159.244 125.545 156.101C122.137 152.958 119.737 148.873 118.646 144.363C117.555 139.853 117.824 135.12 119.418 130.763C121.012 126.406 123.86 122.621 127.602 119.885C131.343 117.15 135.811 115.588 140.438 115.396C145.066 115.204 149.647 116.392 153.601 118.808C158.898 122.053 162.694 127.271 164.156 133.317C165.618 139.362 164.626 145.742 161.399 151.056ZM126.411 129.675C124.603 132.646 123.714 136.088 123.857 139.566C124.001 143.043 125.17 146.4 127.218 149.211C129.266 152.023 132.099 154.163 135.361 155.36C138.623 156.558 142.166 156.76 145.542 155.941C148.918 155.121 151.976 153.317 154.328 150.757C156.681 148.196 158.223 144.994 158.76 141.555C159.296 138.117 158.802 134.596 157.342 131.438C155.881 128.281 153.518 125.628 150.552 123.816C146.574 121.391 141.798 120.646 137.273 121.744C132.747 122.843 128.841 125.695 126.411 129.675Z" fill="#3F3D56"/>
<path d="M236.432 142.6C243.05 142.6 248.415 137.225 248.415 130.595C248.415 123.964 243.05 118.589 236.432 118.589C229.814 118.589 224.449 123.964 224.449 130.595C224.449 137.225 229.814 142.6 236.432 142.6Z" fill="#A0616A"/>
<path d="M235.658 197.899C235.427 197.178 235.35 196.416 235.434 195.663C235.517 194.91 235.758 194.183 236.142 193.53C236.525 192.877 237.042 192.312 237.658 191.873C238.275 191.434 238.977 191.13 239.718 190.982C239.953 190.936 240.191 190.907 240.43 190.894L253.052 170.597L241.523 159.616C241.082 159.196 240.729 158.693 240.483 158.136C240.238 157.579 240.105 156.979 240.092 156.37C240.08 155.761 240.188 155.156 240.41 154.589C240.632 154.022 240.964 153.505 241.387 153.067C241.81 152.63 242.315 152.28 242.873 152.039C243.431 151.799 244.032 151.671 244.64 151.664C245.247 151.657 245.851 151.77 246.414 151.998C246.978 152.226 247.491 152.563 247.924 152.991L263.843 168.718L263.875 168.757C264.368 169.508 264.606 170.397 264.553 171.294C264.501 172.191 264.162 173.047 263.585 173.735L245.899 194.692C245.952 194.86 245.996 195.03 246.031 195.203C246.179 195.946 246.169 196.712 246 197.451C245.832 198.189 245.51 198.884 245.055 199.489C244.6 200.095 244.023 200.597 243.361 200.963C242.699 201.329 241.967 201.551 241.213 201.614C241.061 201.627 240.909 201.634 240.759 201.634C239.624 201.629 238.52 201.266 237.604 200.595C236.688 199.924 236.007 198.981 235.658 197.899Z" fill="#A0616A"/>
<path d="M216.696 297.682L210.715 297.682L207.869 274.567L216.697 274.568L216.696 297.682Z" fill="#A0616A"/>
<path d="M218.221 303.491L198.935 303.49V303.246C198.935 302.258 199.129 301.28 199.506 300.368C199.883 299.455 200.436 298.626 201.133 297.928C201.831 297.229 202.658 296.676 203.569 296.298C204.48 295.92 205.456 295.725 206.442 295.725L218.222 295.726L218.221 303.491Z" fill="#2F2E41"/>
<path d="M276.148 289.397L271.009 292.463L256.76 274.061L264.345 269.536L276.148 289.397Z" fill="#A0616A"/>
<path d="M280.425 293.606L263.853 303.491L263.729 303.281C263.224 302.433 262.892 301.493 262.75 300.515C262.608 299.538 262.66 298.542 262.902 297.585C263.144 296.627 263.572 295.727 264.162 294.936C264.751 294.144 265.491 293.477 266.338 292.971L276.46 286.934L280.425 293.606Z" fill="#2F2E41"/>
<path d="M207.115 287.503C203.108 240.233 200.724 196.319 215.372 178.405L215.485 178.266L240.136 188.145L240.176 188.234C240.26 188.415 248.458 206.482 246.545 218.634L252.626 246.657L272.451 279.915C272.611 280.183 272.712 280.482 272.748 280.792C272.783 281.101 272.753 281.415 272.658 281.712C272.564 282.01 272.407 282.283 272.199 282.515C271.991 282.747 271.736 282.932 271.451 283.057L262.835 286.855C262.349 287.067 261.803 287.097 261.297 286.938C260.791 286.78 260.359 286.444 260.079 285.992L238.513 250.759L226.331 223.735C226.265 223.588 226.153 223.467 226.011 223.391C225.87 223.315 225.707 223.287 225.548 223.313C225.39 223.339 225.244 223.416 225.133 223.532C225.023 223.649 224.954 223.799 224.937 223.959L218.184 287.551C218.128 288.092 217.873 288.592 217.47 288.955C217.067 289.319 216.543 289.519 216.001 289.518H209.303C208.754 289.515 208.225 289.307 207.82 288.934C207.416 288.562 207.164 288.051 207.115 287.503Z" fill="#2F2E41"/>
<path d="M215.455 178.78L215.337 178.723L215.319 178.594C214.398 172.137 215.488 164.962 218.559 157.27C220.072 153.505 222.885 150.41 226.485 148.549C230.085 146.688 234.233 146.184 238.173 147.13C240.442 147.691 242.57 148.717 244.423 150.144C246.276 151.572 247.812 153.369 248.936 155.422C250.045 157.455 250.72 159.696 250.919 162.003C251.119 164.311 250.837 166.635 250.093 168.828C246.223 180.168 241.201 190.779 241.151 190.885L241.046 191.106L215.455 178.78Z" fill="#3F3D56"/>
<path d="M188.56 162.696C189.153 162.227 189.839 161.888 190.572 161.703C191.305 161.517 192.069 161.489 192.814 161.62C193.559 161.752 194.268 162.039 194.894 162.463C195.521 162.888 196.05 163.44 196.449 164.085C196.574 164.289 196.685 164.502 196.78 164.722L220.176 169.459L226.406 154.794C226.644 154.233 226.99 153.726 227.425 153.3C227.86 152.875 228.375 152.54 228.94 152.315C229.504 152.09 230.108 151.979 230.716 151.989C231.324 151.999 231.923 152.129 232.481 152.373C233.038 152.617 233.541 152.968 233.962 153.408C234.382 153.847 234.712 154.366 234.932 154.934C235.151 155.502 235.256 156.108 235.24 156.717C235.225 157.325 235.089 157.925 234.841 158.481L225.713 178.928L225.687 178.972C225.158 179.697 224.409 180.231 223.553 180.496C222.696 180.761 221.777 180.743 220.931 180.443L195.145 171.184C195.007 171.293 194.862 171.394 194.713 171.487C194.07 171.886 193.351 172.144 192.601 172.245C191.852 172.346 191.089 172.287 190.364 172.072C189.639 171.857 188.967 171.491 188.393 170.998C187.819 170.505 187.355 169.896 187.032 169.211C186.966 169.073 186.907 168.933 186.854 168.791C186.461 167.725 186.415 166.561 186.721 165.467C187.027 164.372 187.671 163.403 188.56 162.696Z" fill="#A0616A"/>
<path d="M279.722 143.452C278.567 141.403 276.886 139.526 274.663 138.769C271.792 137.791 268.683 138.832 265.731 139.528C263.456 140.063 261.08 140.391 258.788 139.939C256.496 139.487 254.285 138.15 253.242 136.056C251.707 132.975 253 129.3 252.906 125.858C252.858 123.985 252.386 122.146 251.526 120.482C250.666 118.817 249.44 117.37 247.94 116.249C246.44 115.129 244.706 114.364 242.869 114.012C241.031 113.661 239.138 113.731 237.331 114.22C234.505 113.402 231.946 113.327 230.197 115.504C227.997 115.504 225.888 116.379 224.332 117.938C222.777 119.496 221.903 121.61 221.903 123.813H229.834C229.458 125.839 229.888 127.932 231.031 129.645C232.431 131.706 234.866 133.197 235.334 135.645C235.789 138.017 234.179 140.268 232.49 141.993C230.802 143.717 228.843 145.426 228.316 147.783C227.993 149.573 228.36 151.418 229.342 152.948C230.323 154.458 231.54 155.801 232.946 156.924C239.281 162.362 246.811 166.221 254.919 168.187C260.63 169.564 266.876 169.921 272.177 167.387C274.297 166.373 276.187 164.934 277.729 163.158C279.271 161.381 280.431 159.306 281.139 157.062C281.846 154.817 282.086 152.451 281.842 150.109C281.598 147.768 280.876 145.502 279.722 143.452Z" fill="#2F2E41"/>
<path d="M281.512 304H188.813C188.684 304 188.56 303.949 188.468 303.857C188.377 303.765 188.325 303.641 188.325 303.511C188.325 303.382 188.377 303.257 188.468 303.166C188.56 303.074 188.684 303.022 188.813 303.022H281.512C281.641 303.022 281.766 303.074 281.857 303.166C281.949 303.257 282 303.382 282 303.511C282 303.641 281.949 303.765 281.857 303.857C281.766 303.949 281.641 304 281.512 304Z" fill="#CCCCCC"/>
</g>
<defs>
<clipPath id="clip0_578_187">
<rect width="282" height="304" fill="white"/>
</clipPath>
</defs>
</svg>
